name rise37.2698peak67.6939fall79.5734.mot
datacolumns 19
datarows 20
range 2.85665500000000 2.88833100000000
endheader
time	ground_force1_vx	ground_force1_vy	ground_force1_vz	ground_force1_px	ground_force1_py	ground_force1_pz	ground_force2_vx	ground_force2_vy	ground_force2_vz	ground_force2_px	ground_force2_py	ground_force2_pz	ground_torque1_x	ground_torque1_y	ground_torque1_z	ground_torque2_x	ground_torque2_y	ground_torque2_z	
2.85665500000000	-41.83642900000000	822.06966999999997	59.80748900000000	0.12823800000000	0.00000000000000	0.10741800000000	-4.79668400000000	21.72982400000000	4.05354900000000	0.00000000000000	0.00000000000000	0.00000000000000	0.00000000000000	23.28900200000000	0.00000000000000	0.00000000000000	1.29229300000000	0.00000000000000	
2.85832700000000	-42.29291900000000	820.25602000000003	59.67935200000000	0.12745900000000	0.00000000000000	0.10735900000000	-5.83428300000000	27.59660600000000	5.01232500000000	0.35753600000000	0.00000000000000	-0.07071800000000	0.00000000000000	23.20893800000000	0.00000000000000	0.00000000000000	2.99171300000000	0.00000000000000	
2.85999000000000	-42.75862200000000	818.31792600000006	59.52712600000000	0.12668900000000	0.00000000000000	0.10729700000000	-6.85623000000000	33.80676500000000	5.98618800000000	0.36322000000000	0.00000000000000	-0.07078100000000	0.00000000000000	23.12728000000000	0.00000000000000	0.00000000000000	3.63070200000000	0.00000000000000	
2.86165400000000	-43.23383800000000	816.25446399999998	59.35042500000000	0.12592800000000	0.00000000000000	0.10723000000000	-7.82589900000000	40.23005400000000	6.94627900000000	0.36835700000000	0.00000000000000	-0.07085700000000	0.00000000000000	23.04413600000000	0.00000000000000	0.00000000000000	4.27598500000000	0.00000000000000	
2.86333100000000	-43.71883100000000	814.06474800000001	59.14890300000000	0.12517700000000	0.00000000000000	0.10716000000000	-8.70990600000000	46.74041100000000	7.86566500000000	0.37301700000000	0.00000000000000	-0.07094400000000	0.00000000000000	22.95960900000000	0.00000000000000	0.00000000000000	4.91016700000000	0.00000000000000	
2.86499500000000	-44.21383100000000	811.74792700000000	58.92226000000000	0.12443500000000	0.00000000000000	0.10708600000000	-9.48029800000000	53.22536500000000	8.72116100000000	0.37725600000000	0.00000000000000	-0.07104100000000	0.00000000000000	22.87379900000000	0.00000000000000	0.00000000000000	5.51767300000000	0.00000000000000	
2.86665800000000	-44.71902500000000	809.30318000000000	58.67024400000000	0.12370100000000	0.00000000000000	0.10700800000000	-10.11605300000000	59.59320400000000	9.49462700000000	0.38112200000000	0.00000000000000	-0.07114800000000	0.00000000000000	22.78680300000000	0.00000000000000	0.00000000000000	6.08570500000000	0.00000000000000	
2.86832100000000	-45.23455500000000	806.72971500000006	58.39264500000000	0.12297500000000	0.00000000000000	0.10692600000000	-10.60381500000000	65.77743200000000	10.17368700000000	0.38465700000000	0.00000000000000	-0.07126500000000	0.00000000000000	22.69871000000000	0.00000000000000	0.00000000000000	6.60482800000000	0.00000000000000	
2.86998800000000	-45.76052100000000	804.02676599999995	58.08930700000000	0.12225600000000	0.00000000000000	0.10684000000000	-10.93788600000000	71.73845900000001	10.75185000000000	0.38789300000000	0.00000000000000	-0.07139100000000	0.00000000000000	22.60960600000000	0.00000000000000	0.00000000000000	7.06919500000000	0.00000000000000	
2.87165600000000	-46.29697100000000	801.19358699999998	57.76011700000000	0.12154500000000	0.00000000000000	0.10675000000000	-11.11960300000000	77.46280100000000	11.22814300000000	0.39086000000000	0.00000000000000	-0.07152500000000	0.00000000000000	22.51957000000000	0.00000000000000	0.00000000000000	7.47643600000000	0.00000000000000	
2.87332600000000	-46.84390200000000	798.22945300000003	57.40501600000000	0.12084000000000	0.00000000000000	0.10665600000000	-11.15623700000000	82.96026600000000	11.60634100000000	0.39358400000000	0.00000000000000	-0.07166800000000	0.00000000000000	22.42867600000000	0.00000000000000	0.00000000000000	7.82728300000000	0.00000000000000	
2.87499000000000	-47.40125500000000	795.13365599999997	57.02399100000000	0.12014100000000	0.00000000000000	0.10655800000000	-11.05959400000000	88.25970900000000	11.89394700000000	0.39608500000000	0.00000000000000	-0.07181800000000	0.00000000000000	22.33699100000000	0.00000000000000	0.00000000000000	8.12499600000000	0.00000000000000	
2.87665400000000	-47.96891500000000	791.90550599999995	56.61708100000000	0.11944700000000	0.00000000000000	0.10645600000000	-10.84449600000000	93.40395900000000	12.10104100000000	0.39838200000000	0.00000000000000	-0.07197500000000	0.00000000000000	22.24457400000000	0.00000000000000	0.00000000000000	8.37468300000000	0.00000000000000	
2.87832500000000	-48.54670700000000	788.54432299999996	56.18437600000000	0.11875800000000	0.00000000000000	0.10635100000000	-10.52726200000000	98.44447400000000	12.23911200000000	0.40049300000000	0.00000000000000	-0.07214000000000	0.00000000000000	22.15147900000000	0.00000000000000	0.00000000000000	8.58258300000000	0.00000000000000	
2.87999400000000	-49.13439300000000	785.04944399999999	55.72601600000000	0.11807300000000	0.00000000000000	0.10624100000000	-10.12434500000000	103.43621500000000	12.31998300000000	0.40243100000000	0.00000000000000	-0.07231200000000	0.00000000000000	22.05774900000000	0.00000000000000	0.00000000000000	8.75538600000000	0.00000000000000	
2.88166200000000	-49.73167000000000	781.42021599999998	55.24219000000000	0.11739200000000	0.00000000000000	0.10612800000000	-9.65118000000000	108.43310500000000	12.35489000000000	0.40421000000000	0.00000000000000	-0.07249000000000	0.00000000000000	21.96342100000000	0.00000000000000	0.00000000000000	8.89962900000000	0.00000000000000	
2.88332400000000	-50.33816900000000	777.65599599999996	54.73313900000000	0.11671300000000	0.00000000000000	0.10601000000000	-9.12131500000000	113.48432800000000	12.35376500000000	0.40584000000000	0.00000000000000	-0.07267400000000	0.00000000000000	21.86852400000000	0.00000000000000	0.00000000000000	9.02121500000000	0.00000000000000	
2.88499300000000	-50.95345200000000	773.75615500000004	54.19915500000000	0.11603700000000	0.00000000000000	0.10588900000000	-8.54582700000000	118.63161300000000	12.32473400000000	0.40733300000000	0.00000000000000	-0.07286400000000	0.00000000000000	21.77307800000000	0.00000000000000	0.00000000000000	9.12505900000000	0.00000000000000	
2.88665900000000	-51.57700800000000	769.72007299999996	53.64057700000000	0.11536200000000	0.00000000000000	0.10576400000000	-7.93304000000000	123.90752800000000	12.27385300000000	0.40869700000000	0.00000000000000	-0.07305900000000	0.00000000000000	21.67709200000000	0.00000000000000	0.00000000000000	9.21488300000000	0.00000000000000	
2.88833100000000	-52.20825600000000	765.54714400000000	53.05779400000000	0.11468900000000	0.00000000000000	0.10563600000000	-7.28848500000000	129.33473799999999	12.20503100000000	0.40994100000000	0.00000000000000	-0.07326000000000	0.00000000000000	21.58057000000000	0.00000000000000	0.00000000000000	9.29313100000000	0.00000000000000	
